<svg xmlns="http://www.w3.org/2000/svg" version="1.1" xmlns:xlink="http://www.w3.org/1999/xlink" xmlns:svgjs="http://svgjs.dev/svgjs" width="2000" height="540" viewBox="0 0 2000 540"><g transform="matrix(1,0,0,1,-1.2120878825160162,0.36162722418987414)"><svg viewBox="0 0 396 107" data-background-color="#ffffff" preserveAspectRatio="xMidYMid meet" height="540" width="2000" xmlns="http://www.w3.org/2000/svg" xmlns:xlink="http://www.w3.org/1999/xlink"><g id="tight-bounds" transform="matrix(1,0,0,1,0.23999340073817166,-0.07165576479317792)"><svg viewBox="0 0 395.52 107.14331152958634" height="107.14331152958634" width="395.52"><g><svg viewBox="0 0 562.6036079544856 152.4049697480196" height="107.14331152958634" width="395.52"><g transform="matrix(1,0,0,1,167.08360795448561,21.063204936231365)"><svg viewBox="0 0 395.52 110.27855987555687" height="110.27855987555687" width="395.52"><g id="textblocktransform"><svg viewBox="0 0 395.52 110.27855987555687" height="110.27855987555687" width="395.52" id="textblock"><g><svg viewBox="0 0 395.52 69.35066147859922" height="69.35066147859922" width="395.52"><g transform="matrix(1,0,0,1,0,0)"><svg width="395.52" viewBox="2.049999952316284 -35.54999923706055 206.739990234375 36.04999923706055" height="69.35066147859922" data-palette-color="#50a060"><g class="wordmark-text-0" data-fill-palette-color="primary" id="text-0"><path d="M19.5-0.5L19.5-0.5Q21.95-0.5 22.63-1.4 23.3-2.3 23.3-4.45L23.3-4.45 23.3-14.15 20.1-14.15 20.1-15.25 34.5-15.25 34.5-14.15 32.55-14.15 32.55-0.05 31.8-0.05Q30.9-1.3 29.25-1.3L29.25-1.3Q28.55-1.3 25.08-0.4 21.6 0.5 19.15 0.5L19.15 0.5Q11 0.5 6.53-3.9 2.05-8.3 2.05-17.13 2.05-25.95 6.73-30.75 11.4-35.55 19.3-35.55L19.3-35.55Q22.35-35.55 25.43-34.77 28.5-34 29-34 29.5-34 29.75-34.23 30-34.45 30.3-35L30.3-35 30.85-35 31.25-24.15 30.35-24.15Q27.9-29 25.43-31.78 22.95-34.55 19.9-34.55L19.9-34.55Q12.25-34.55 12.25-19.6L12.25-19.6 12.25-15.65Q12.25-8.15 14.13-4.33 16-0.5 19.5-0.5ZM61.2-15.45L61.2-15.45 61.2-19.15Q61.2-28.3 60.3-30.7L60.3-30.7Q59.3-33.45 57.45-34.1L57.45-34.1Q56.4-34.5 54.9-34.5 53.4-34.5 52.32-34.1 51.25-33.7 50.55-32.7 49.85-31.7 49.42-30.6 49-29.5 48.75-27.5L48.75-27.5Q48.45-24.6 48.45-18.95L48.45-18.95 48.45-15.35Q48.45-9.25 48.92-6.68 49.4-4.1 50.1-3L50.1-3Q51.65-0.55 54.9-0.55L54.9-0.55Q58.85-0.55 60.02-3.88 61.2-7.2 61.2-15.45ZM54.8 0.5Q46.45 0.5 42.32-4.03 38.2-8.55 38.2-17.13 38.2-25.7 42.62-30.63 47.05-35.55 55.15-35.55 63.25-35.55 67.37-30.88 71.5-26.2 71.5-17.6 71.5-9 67.32-4.25 63.15 0.5 54.8 0.5ZM89.8-0.55L89.8-0.55Q92.3-0.55 94.22-1.9 96.15-3.25 96.15-5.98 96.15-8.7 94.07-10.15 92-11.6 88.17-12.68 84.34-13.75 82.62-14.55 80.89-15.35 79.34-16.65L79.34-16.65Q76.25-19.25 76.25-24.7L76.25-24.7Q76.25-29.15 79.42-32.35 82.59-35.55 88.09-35.55L88.09-35.55Q90.75-35.55 93.62-34.77 96.5-34 97.2-34 97.9-34 98.45-35L98.45-35 99-35 99.34-24.9 98.55-24.9Q96.15-29.25 93.52-31.88 90.9-34.5 87.82-34.5 84.75-34.5 83.05-33.08 81.34-31.65 81.34-29.28 81.34-26.9 83.37-25.63 85.4-24.35 88.34-23.55 91.3-22.75 92.22-22.45 93.15-22.15 94.52-21.63 95.9-21.1 96.77-20.53 97.65-19.95 98.62-19.07 99.59-18.2 100.15-17.15L100.15-17.15Q101.5-14.75 101.5-11.45L101.5-11.45Q101.5-6.05 98.12-2.78 94.75 0.5 89.25 0.5L89.25 0.5Q86.4 0.5 82.72-0.25 79.05-1 78.64-1L78.64-1Q77.95-1 77.3 0.5L77.3 0.5 76.59 0.5 76.09-11.4 76.95-11.4Q79.14-7.05 82.57-3.8 86-0.55 89.8-0.55ZM104.59-34.05L104.59-35 120.19-35 120.19-34.05 117.29-34.05 117.29-18.55 127.24-18.55 127.24-34.05 124.29-34.05 124.29-35 139.94-35 139.94-34.05 136.99-34.05 136.99-0.95 139.94-0.95 139.94 0 124.29 0 124.29-0.95 127.24-0.95 127.24-17.25 117.29-17.25 117.29-0.95 120.19-0.95 120.19 0 104.59 0 104.59-0.95 107.54-0.95 107.54-34.05 104.59-34.05ZM166.04-15.45L166.04-15.45 166.04-19.15Q166.04-28.3 165.14-30.7L165.14-30.7Q164.14-33.45 162.29-34.1L162.29-34.1Q161.24-34.5 159.74-34.5 158.24-34.5 157.17-34.1 156.09-33.7 155.39-32.7 154.69-31.7 154.27-30.6 153.84-29.5 153.59-27.5L153.59-27.5Q153.29-24.6 153.29-18.95L153.29-18.95 153.29-15.35Q153.29-9.25 153.77-6.68 154.24-4.1 154.94-3L154.94-3Q156.49-0.55 159.74-0.55L159.74-0.55Q163.69-0.55 164.87-3.88 166.04-7.2 166.04-15.45ZM159.64 0.5Q151.29 0.5 147.17-4.03 143.04-8.55 143.04-17.13 143.04-25.7 147.47-30.63 151.89-35.55 159.99-35.55 168.09-35.55 172.22-30.88 176.34-26.2 176.34-17.6 176.34-9 172.17-4.25 167.99 0.5 159.64 0.5ZM179.14-34.05L179.14-35 193.84-35Q201.39-35 205.09-32.83 208.79-30.65 208.79-25.05L208.79-25.05Q208.79-18.85 204.29-16.5L204.29-16.5Q200.09-14.35 192.54-14.35L192.54-14.35 192.14-14.35 192.14-0.95 198.39-0.95 198.39 0 179.14 0 179.14-0.95 182.39-0.95 182.39-34.05 179.14-34.05ZM193.49-34.05L192.14-34.05 192.14-15.3 193.19-15.3Q196.19-15.3 197.34-17.35 198.49-19.4 198.49-24L198.49-24 198.49-26.4Q198.49-30.65 197.41-32.35 196.34-34.05 193.49-34.05L193.49-34.05Z" fill="#50a060" data-fill-palette-color="primary"></path></g></svg></g></svg></g><g transform="matrix(1,0,0,1,75.54432,85.72268823782102)"><svg viewBox="0 0 244.43135999999998 24.55587163773585" height="24.55587163773585" width="244.43135999999998"><g transform="matrix(1,0,0,1,0,0)"><svg width="244.43135999999998" viewBox="5.050000190734863 -41.599998474121094 596.1900024414062 59.89999771118164" height="24.55587163773585" data-palette-color="#ffffff"><path d="M37.65-33.7L37.65-33.7Q37.8-32.85 37.88-32.52 37.95-32.2 37.95-31.65L37.95-31.65Q37.95-30 37.23-28.58 36.5-27.15 35.25-26.55L35.25-26.55Q34.25-27.9 32.8-28.88 31.35-29.85 29.63-30.48 27.9-31.1 26.05-31.4 24.2-31.7 22.45-31.7L22.45-31.7Q20.7-31.7 19.18-31.43 17.65-31.15 16.48-30.68 15.3-30.2 14.63-29.5 13.95-28.8 13.95-27.9L13.95-27.9Q14.1-26.8 15.3-25.68 16.5-24.55 18.25-23.48 20-22.4 22.13-21.35 24.25-20.3 26.3-19.35L26.3-19.35Q28.85-18.15 30.7-17.13 32.55-16.1 33.75-14.88 34.95-13.65 35.55-12.1 36.15-10.55 36.15-8.35L36.15-8.35Q36.15-5.8 35.3-3.58 34.45-1.35 32.83 0.3 31.2 1.95 28.9 2.88 26.6 3.8 23.75 3.8L23.75 3.8Q20.95 3.8 17.7 2.95 14.45 2.1 11.63 0.63 8.8-0.85 6.93-2.78 5.05-4.7 5.05-6.85L5.05-6.85Q5.05-7.85 5.63-9.4 6.2-10.95 7.7-12.65L7.7-12.65Q7.85-11.15 9.33-9.1 10.8-7.05 13.75-5.3L13.75-5.3Q16.5-3.7 19.43-2.98 22.35-2.25 24.9-2.25L24.9-2.25Q27.7-2.25 29.45-2.95 31.2-3.65 32.2-4.63 33.2-5.6 33.6-6.6 34-7.6 34.05-8.2L34.05-8.2Q34-9.2 33.13-10.13 32.25-11.05 30.78-11.93 29.3-12.8 27.35-13.7 25.4-14.6 23.3-15.5L23.3-15.5Q20.15-16.9 17.88-18.13 15.6-19.35 14.13-20.63 12.65-21.9 11.98-23.3 11.3-24.7 11.3-26.5L11.3-26.5Q11.3-29.3 13-31.8 14.7-34.3 17.9-35.6L17.9-35.6Q19.5-36.3 21.33-36.6 23.15-36.9 24.9-36.9L24.9-36.9Q28.2-36.9 31.35-36 34.5-35.1 37.65-33.7ZM39.45-0.85L39.45-0.85Q39.45-2.6 39.8-4.98 40.15-7.35 40.82-10.05 41.5-12.75 42.42-15.7 43.35-18.65 44.5-21.6L44.5-21.6Q45.5-24.25 46.82-26.95 48.15-29.65 49.7-32.25 51.25-34.85 52.92-37.2 54.6-39.55 56.3-41.5L56.3-41.5Q57.1-41.5 58.02-41.3 58.95-41.1 59.82-40.78 60.7-40.45 61.42-40 62.15-39.55 62.6-39.1L62.6-39.1Q58.85-35.25 55.85-31.33 52.85-27.4 51.1-23.95L51.1-23.95Q50.15-22.05 49.37-20.4 48.6-18.75 47.95-17.13 47.3-15.5 46.77-13.88 46.25-12.25 45.8-10.45L45.8-10.45Q55.4-22.7 60.05-22.7L60.05-22.7Q61.35-22.7 62.85-21.85 64.35-21 65.5-19.55L65.5-19.55Q63.95-17.85 62.3-15.45 60.65-13.05 59.27-10.63 57.9-8.2 57.02-6.13 56.15-4.05 56.15-3.05L56.15-3.05Q56.15-2.55 56.3-2.38 56.45-2.2 56.95-2.2L56.95-2.2Q57.7-2.2 58.15-2.4 58.6-2.6 58.7-2.6L58.7-2.6Q58.95-2.2 59-2.05 59.05-1.9 59.05-1.8L59.05-1.8Q59.05-1.6 58.45-1.23 57.85-0.85 57.02-0.48 56.2-0.1 55.4 0.2 54.6 0.5 54.2 0.5L54.2 0.5Q53.7 0.5 53.2 0.23 52.7-0.05 52.32-0.5 51.95-0.95 51.72-1.5 51.5-2.05 51.5-2.65L51.5-2.65Q51.5-3.4 51.92-4.88 52.35-6.35 53.1-8.33 53.85-10.3 54.9-12.65 55.95-15 57.15-17.45L57.15-17.45Q57.15-17.65 56.95-17.65L56.95-17.65Q56.8-17.65 56.17-17.25 55.55-16.85 55-16.45L55-16.45Q53.2-15.1 51.37-13.13 49.55-11.15 47.82-8.8 46.1-6.45 44.57-3.83 43.05-1.2 41.95 1.45L41.95 1.45Q41.8 1.8 41.5 2.1 41.2 2.4 41 2.4L41 2.4Q40.85 2.4 40.57 2.05 40.3 1.7 40.07 1.18 39.85 0.65 39.65 0.1 39.45-0.45 39.45-0.85ZM71.25 1.75L71.25 1.75Q68.4 1.45 66.7-0.75 65-2.95 65-6.35L65-6.35Q65-8.35 65.59-10.5 66.2-12.65 67.3-14.68 68.4-16.7 69.9-18.5 71.4-20.3 73.15-21.6L73.15-21.6Q75.9-23.65 78.3-23.65L78.3-23.65Q79.9-22.8 81.45-20.1L81.45-20.1Q81.7-20.1 81.9-20.13 82.09-20.15 82.34-20.15L82.34-20.15Q85-20.15 85-15.45L85-15.45Q85-12.3 83.97-9.47 82.95-6.65 81.12-4.35 79.3-2.05 76.77-0.48 74.25 1.1 71.25 1.75ZM73.8-14L73.8-14Q72.95-12.85 72.2-11.5 71.45-10.15 70.9-8.78 70.34-7.4 70.05-6.13 69.75-4.85 69.75-3.85L69.75-3.85Q69.75-2.65 70.15-1.55 70.55-0.45 71.05-0.3L71.05-0.3Q73.3-0.8 75.17-2.18 77.05-3.55 78.42-5.6 79.8-7.65 80.57-10.25 81.34-12.85 81.34-15.8L81.34-15.8Q81.34-17.1 81.2-17.85 81.05-18.6 80.7-19.15L80.7-19.15Q78.5-18.5 76.77-17.05 75.05-15.6 73.8-14ZM83.74 16.55L83.74 16.55Q83.04 16.35 82.94 15.05L82.94 15.05Q82.74 14.4 82.67 13.5 82.59 12.6 82.59 11.45L82.59 11.45Q82.59 10.4 82.94 8.58 83.29 6.75 83.92 4.45 84.54 2.15 85.44-0.53 86.34-3.2 87.44-5.95L87.44-5.95Q88.79-9.4 89.79-11.93 90.79-14.45 91.47-16.3 92.14-18.15 92.57-19.35 92.99-20.55 93.24-21.4L93.24-21.4Q93.44-22 93.84-22.85 94.24-23.7 94.77-24.58 95.29-25.45 95.84-26.23 96.39-27 96.84-27.4L96.84-27.4Q98.59-27.15 100.14-26.5 101.69-25.85 102.04-25.25L102.04-25.25Q101.34-24.6 100.44-23.23 99.54-21.85 98.69-20.23 97.84-18.6 97.14-16.9 96.44-15.2 96.09-13.9L96.09-13.9Q96.59-14.75 97.39-15.75 98.19-16.75 99.84-18.5L99.84-18.5Q101.69-20.4 103.32-21.43 104.94-22.45 106.14-22.45L106.14-22.45Q108.04-22.45 109.27-21.4 110.49-20.35 110.49-18.7L110.49-18.7Q110.49-15.1 109.29-11.58 108.09-8.05 105.84-5.2L105.84-5.2Q104.99-4.1 103.84-3.1 102.69-2.1 101.44-1.33 100.19-0.55 98.99-0.1 97.79 0.35 96.84 0.35L96.84 0.35Q95.94 0.35 95.27-0.03 94.59-0.4 94.34-0.95L94.34-0.95Q96.29-2.1 98.14-4.15 99.99-6.2 101.57-8.88 103.14-11.55 104.32-14.65 105.49-17.75 106.09-20.95L106.09-20.95Q104.19-19.95 102.67-18.78 101.14-17.6 99.64-15.7L99.64-15.7Q97.84-13.5 96.79-12.15 95.74-10.8 95.07-9.85 94.39-8.9 93.97-8.08 93.54-7.25 93.04-6.05L93.04-6.05Q92.34-4.45 91.42-1.83 90.49 0.8 89.52 4.05 88.54 7.3 87.57 10.98 86.59 14.65 85.69 18.3L85.69 18.3Q85.14 18.2 84.74 17.5L84.74 17.5Q84.34 17.05 84.17 16.85 83.99 16.65 83.74 16.55ZM130.79 1.55L130.79 1.55Q130.54-0.5 130.41-2.93 130.29-5.35 130.29-7.45L130.29-7.45Q130.29-10.8 130.51-13.88 130.74-16.95 131.06-20.33 131.39-23.7 131.79-27.68 132.19-31.65 132.49-36.85L132.49-36.85Q133.14-36.85 134.36-36.48 135.59-36.1 136.84-35.6 138.09-35.1 139.04-34.58 139.99-34.05 140.14-33.7L140.14-33.7Q139.29-31.75 138.61-28.58 137.94-25.4 137.49-21.65 137.04-17.9 136.79-13.95 136.54-10 136.54-6.55L136.54-6.55Q136.54-4.95 136.59-3.4 136.64-1.85 136.74-0.55L136.74-0.55Q137.79-2.1 139.16-4.98 140.54-7.85 142.01-11.4 143.49-14.95 144.96-18.82 146.44-22.7 147.69-26.23 148.94-29.75 149.81-32.58 150.69-35.4 151.04-36.85L151.04-36.85Q151.69-36.85 152.96-36.48 154.24-36.1 155.46-35.6 156.69-35.1 157.64-34.58 158.59-34.05 158.69-33.7L158.69-33.7Q157.84-31.75 157.16-28.58 156.49-25.4 156.04-21.65 155.59-17.9 155.34-13.95 155.09-10 155.09-6.55L155.09-6.55Q155.09-5.1 155.11-3.68 155.14-2.25 155.24-1.1L155.24-1.1Q156.84-5.25 158.56-9.33 160.29-13.4 161.99-17.13 163.69-20.85 165.29-24.08 166.89-27.3 168.24-29.83 169.59-32.35 170.59-34 171.59-35.65 172.14-36.2L172.14-36.2Q173.29-36.05 174.51-35.38 175.74-34.7 176.69-33.65L176.69-33.65Q175.24-32.5 173.39-29.88 171.54-27.25 169.59-23.8 167.64-20.35 165.66-16.45 163.69-12.55 161.99-8.85 160.29-5.15 158.96-1.95 157.64 1.25 156.94 3.2L156.94 3.2Q155.64 3.8 154.39 3.8L154.39 3.8Q152.79 3.6 151.36 3 149.94 2.4 149.34 1.55L149.34 1.55Q149.19 0.75 149.09-0.33 148.99-1.4 148.94-2.45 148.89-3.5 148.86-4.48 148.84-5.45 148.84-6.15L148.84-6.15Q148.84-10.6 149.19-15.23 149.54-19.85 150.04-25.15L150.04-25.15Q148.89-21.75 147.49-17.85 146.09-13.95 144.56-10.13 143.04-6.3 141.46-2.83 139.89 0.65 138.39 3.2L138.39 3.2Q137.09 3.8 135.84 3.8L135.84 3.8Q134.24 3.6 132.81 3 131.39 2.4 130.79 1.55ZM170.24-3.35L170.24-3.35Q170.24-3.8 170.31-4.48 170.39-5.15 170.59-6.28 170.78-7.4 171.11-9 171.44-10.6 171.94-12.85L171.94-12.85Q172.03-13.35 172.39-14.45 172.74-15.55 173.31-16.78 173.89-18 174.71-19.15 175.53-20.3 176.69-20.85L176.69-20.85Q177.53-20.65 178.94-19.83 180.34-19 181.34-17.55L181.34-17.55Q180.19-16.25 179.41-14.95 178.64-13.65 178.01-12.25 177.39-10.85 176.86-9.35 176.34-7.85 175.69-6.2L175.69-6.2Q175.14-4.8 174.69-3.33 174.24-1.85 174.19-0.75L174.19-0.75Q174.19 0.15 174.16 0.53 174.14 0.9 173.89 0.9L173.89 0.9Q173.69 0.9 173.09 0.65 172.49 0.4 171.86-0.13 171.24-0.65 170.74-1.45 170.24-2.25 170.24-3.35ZM179.78-25.05L179.78-25.05Q179.78-25.35 179.94-25.95L179.94-25.95Q179.69-26.2 179.51-26.7 179.34-27.2 179.34-27.6L179.34-27.6Q179.34-28.05 179.46-28.83 179.59-29.6 179.78-30.5 179.99-31.4 180.28-32.38 180.59-33.35 180.89-34.15L180.89-34.15Q181.49-34.15 182.36-33.83 183.24-33.5 184.14-32.98 185.04-32.45 185.79-31.83 186.54-31.2 186.94-30.65L186.94-30.65Q186.39-30.1 185.49-29.13 184.59-28.15 183.74-27.08 182.89-26 182.19-25.05 181.49-24.1 181.28-23.7L181.28-23.7Q180.69-23.8 180.24-24.23 179.78-24.65 179.78-25.05ZM187.43-19.15L184.58-19.15Q184.33-19.45 184.13-20.43 183.93-21.4 183.93-22.1L183.93-22.1Q185.23-22 186.43-21.93 187.63-21.85 188.63-21.8L188.63-21.8Q189.38-23.3 190.26-24.78 191.13-26.25 191.96-27.48 192.78-28.7 193.51-29.55 194.23-30.4 194.63-30.65L194.63-30.65Q195.13-30.65 195.91-30.48 196.68-30.3 197.48-30.03 198.28-29.75 198.93-29.45 199.58-29.15 199.83-28.85L199.83-28.85Q198.33-26.95 197.26-25.33 196.18-23.7 194.93-21.6L194.93-21.6Q195.93-21.6 196.96-21.65 197.98-21.7 199.03-21.8L199.03-21.8Q199.28-21.55 199.43-21.18 199.58-20.8 199.58-20.4L199.58-20.4Q197.13-19.5 193.63-19.4L193.63-19.4Q192.38-17 191.41-14.63 190.43-12.25 189.76-10.05 189.08-7.85 188.71-5.9 188.33-3.95 188.33-2.4L188.33-2.4Q188.33-0.2 189.98 0.05L189.98 0.05Q191.48-0.15 192.83-0.7 194.18-1.25 195.23-2.1L195.23-2.1Q195.53-1.65 195.58-1.35L195.58-1.35Q195.28-0.9 194.56-0.3 193.83 0.3 192.98 0.88 192.13 1.45 191.33 1.85 190.53 2.25 190.13 2.3L190.13 2.3Q188.88 2.25 187.63 1.75 186.38 1.25 185.36 0.5 184.33-0.25 183.68-1.18 183.03-2.1 183.03-3L183.03-3Q183.03-4.2 183.36-6.03 183.68-7.85 184.28-10 184.88-12.15 185.68-14.5 186.48-16.85 187.43-19.15L187.43-19.15ZM199.18-0.85L199.18-0.85Q199.18-2.6 199.53-4.98 199.88-7.35 200.56-10.05 201.23-12.75 202.16-15.7 203.08-18.65 204.23-21.6L204.23-21.6Q205.23-24.25 206.56-26.95 207.88-29.65 209.43-32.25 210.98-34.85 212.66-37.2 214.33-39.55 216.03-41.5L216.03-41.5Q216.83-41.5 217.76-41.3 218.68-41.1 219.56-40.78 220.43-40.45 221.16-40 221.88-39.55 222.33-39.1L222.33-39.1Q218.58-35.25 215.58-31.33 212.58-27.4 210.83-23.95L210.83-23.95Q209.88-22.05 209.11-20.4 208.33-18.75 207.68-17.13 207.03-15.5 206.51-13.88 205.98-12.25 205.53-10.45L205.53-10.45Q215.13-22.7 219.78-22.7L219.78-22.7Q221.08-22.7 222.58-21.85 224.08-21 225.23-19.55L225.23-19.55Q223.68-17.85 222.03-15.45 220.38-13.05 219.01-10.63 217.63-8.2 216.76-6.13 215.88-4.05 215.88-3.05L215.88-3.05Q215.88-2.55 216.03-2.38 216.18-2.2 216.68-2.2L216.68-2.2Q217.43-2.2 217.88-2.4 218.33-2.6 218.43-2.6L218.43-2.6Q218.68-2.2 218.73-2.05 218.78-1.9 218.78-1.8L218.78-1.8Q218.78-1.6 218.18-1.23 217.58-0.85 216.76-0.48 215.93-0.1 215.13 0.2 214.33 0.5 213.93 0.5L213.93 0.5Q213.43 0.5 212.93 0.23 212.43-0.05 212.06-0.5 211.68-0.95 211.46-1.5 211.23-2.05 211.23-2.65L211.23-2.65Q211.23-3.4 211.66-4.88 212.08-6.35 212.83-8.33 213.58-10.3 214.63-12.65 215.68-15 216.88-17.45L216.88-17.45Q216.88-17.65 216.68-17.65L216.68-17.65Q216.53-17.65 215.91-17.25 215.28-16.85 214.73-16.45L214.73-16.45Q212.93-15.1 211.11-13.13 209.28-11.15 207.56-8.8 205.83-6.45 204.31-3.83 202.78-1.2 201.68 1.45L201.68 1.45Q201.53 1.8 201.23 2.1 200.93 2.4 200.73 2.4L200.73 2.4Q200.58 2.4 200.31 2.05 200.03 1.7 199.81 1.18 199.58 0.65 199.38 0.1 199.18-0.45 199.18-0.85ZM257.83-21.3L257.83-21.3Q259.48-21.3 260.4-20.4 261.33-19.5 261.33-17.9L261.33-17.9Q261.33-17.5 261.25-17.07 261.18-16.65 261.08-16.35L261.08-16.35Q260.43-16.45 259.63-16.53 258.83-16.6 257.73-16.6L257.73-16.6Q255.58-16.6 253.38-16.23 251.18-15.85 249.18-15.6L249.18-15.6Q248.03-12.95 247.08-10.48 246.13-8 245.45-5.95 244.78-3.9 244.4-2.4 244.03-0.9 243.98-0.15L243.98-0.15Q248.03-1 252.15-1.6 256.28-2.2 260.83-2.5L260.83-2.5Q261.38-1.65 261.75-0.65 262.13 0.35 262.13 1.5L262.13 1.5Q262.13 1.8 262.13 2.15 262.13 2.5 262.03 2.85L262.03 2.85Q260.63 2.8 259.08 2.78 257.53 2.75 255.03 2.75L255.03 2.75Q253.38 2.75 251.9 2.83 250.43 2.9 248.93 3.05 247.43 3.2 245.75 3.45 244.08 3.7 241.98 4.05L241.98 4.05Q239.68 3.15 237.53-0.35L237.53-0.35Q238.38-2.15 239.9-5.83 241.43-9.5 243.78-15.65L243.78-15.65Q241.53-16.35 240.83-18.15L240.83-18.15Q241.08-18.4 242.28-18.78 243.48-19.15 245.23-19.55L245.23-19.55Q245.98-21.5 246.5-22.95 247.03-24.4 247.43-25.68 247.83-26.95 248.15-28.18 248.48-29.4 248.78-30.85L248.78-30.85Q247.03-30.95 246.03-31.83 245.03-32.7 245.03-34.1L245.03-34.1Q245.03-34.5 245.15-35.05 245.28-35.6 245.43-36L245.43-36Q246.43-35.85 247.35-35.8 248.28-35.75 249.78-35.75L249.78-35.75Q252.93-35.75 255.68-35.93 258.43-36.1 260.65-36.3 262.88-36.5 264.48-36.68 266.08-36.85 266.93-36.85L266.93-36.85Q268.08-36.85 268.98-35.65 269.88-34.45 270.33-32.25L270.33-32.25Q268.78-32.4 267.8-32.45 266.83-32.5 266.08-32.5L266.08-32.5Q263.33-32.5 261.05-32.23 258.78-31.95 256.68-31.65L256.68-31.65Q256.38-31.2 256-30.5 255.63-29.8 255.03-28.55 254.43-27.3 253.55-25.4 252.68-23.5 251.43-20.65L251.43-20.65Q253.33-20.95 255-21.13 256.68-21.3 257.83-21.3ZM283.67-20.2L283.67-20.2Q284.17-20.2 284.85-20.03 285.52-19.85 286.07-19.58 286.62-19.3 287-19 287.37-18.7 287.37-18.45L287.37-18.45Q286.37-16.35 285.52-14.23 284.67-12.1 284.07-10.15 283.47-8.2 283.15-6.5 282.82-4.8 282.82-3.55L282.82-3.55Q282.82-2.15 283.12-1.23 283.42-0.3 284.12 0.1L284.12 0.1Q283.52 0.5 282.57 0.75 281.62 1 280.87 1L280.87 1Q278.17 1 278.17-2.7L278.17-2.7Q278.17-5.55 280.07-10.5L280.07-10.5Q279.07-8.2 277.77-6.18 276.47-4.15 275.12-2.6 273.77-1.05 272.4-0.08 271.02 0.9 269.87 1.1L269.87 1.1Q268.02 1 266.87-0.68 265.72-2.35 265.72-4.95L265.72-4.95Q265.72-7.75 266.92-10.85 268.12-13.95 270-16.6 271.87-19.25 274.07-21.03 276.27-22.8 278.32-22.9L278.32-22.9Q278.82-22.75 279.45-22.3 280.07-21.85 280.65-21.25 281.22-20.65 281.62-20.03 282.02-19.4 282.07-18.95L282.07-18.95Q280.07-18.65 277.95-17 275.82-15.35 274.1-13.03 272.37-10.7 271.27-8.05 270.17-5.4 270.17-3.1L270.17-3.1Q270.17-2.15 270.87-1.9L270.87-1.9Q272.32-2.2 274.22-4.38 276.12-6.55 278.82-11.1L278.82-11.1Q279.32-12 279.95-13.1 280.57-14.2 281.22-15.4 281.87-16.6 282.5-17.82 283.12-19.05 283.67-20.2ZM307.17-19.9L307.17-19.9Q307.12-18.95 306.85-17.93 306.57-16.9 306.17-16.07 305.77-15.25 305.32-14.7 304.87-14.15 304.47-14.15L304.47-14.15Q303.92-14.2 303.82-14.9L303.82-14.9Q303.82-15.05 303.95-15.38 304.07-15.7 304.22-16.1 304.37-16.5 304.5-16.9 304.62-17.3 304.62-17.6L304.62-17.6Q304.62-18.3 304.3-18.78 303.97-19.25 303.42-19.25L303.42-19.25Q301.42-19.25 300.37-16.75 299.32-14.25 299.32-9.4L299.32-9.4Q299.32-8.9 299.37-8.8L299.37-8.8Q300.42-8.85 301.25-8.88 302.07-8.9 302.87-8.9L302.87-8.9Q302.92-8.8 302.92-8.5L302.92-8.5Q302.92-8.05 302.72-7.85L302.72-7.85Q301.57-7.6 300.9-7.43 300.22-7.25 299.87-7.1 299.52-6.95 299.45-6.78 299.37-6.6 299.37-6.3L299.37-6.3Q299.37-5.9 299.4-5.5 299.42-5.1 299.42-4.5L299.42-4.5Q299.42-0.3 297.15 2.25 294.87 4.8 290.82 5.2L290.82 5.2Q290.12 5.15 289.37 4.8 288.62 4.45 287.95 3.9 287.27 3.35 286.77 2.68 286.27 2 286.07 1.3L286.07 1.3Q286.07-0.6 286.87-2.33 287.67-4.05 289.05-5.38 290.42-6.7 292.3-7.53 294.17-8.35 296.37-8.5L296.37-8.5Q296.37-9.75 296.12-10.95 295.87-12.15 295.6-13.28 295.32-14.4 295.07-15.48 294.82-16.55 294.82-17.6L294.82-17.6Q294.82-18.95 295.37-20.28 295.92-21.6 296.82-22.73 297.72-23.85 298.92-24.65 300.12-25.45 301.42-25.75L301.42-25.75Q301.97-25.6 302.9-24.88 303.82-24.15 304.72-23.25 305.62-22.35 306.32-21.43 307.02-20.5 307.17-19.9ZM290.67 2.9L290.67 2.9Q291.87 2.4 292.95 1.45 294.02 0.5 294.82-0.7 295.62-1.9 296.1-3.25 296.57-4.6 296.57-5.9L296.57-5.9Q295.57-5.75 294.37-4.98 293.17-4.2 292.12-3.13 291.07-2.05 290.37-0.9 289.67 0.25 289.67 1.1L289.67 1.1Q289.67 2.2 290.67 2.9ZM325.12-20.7L325.12-20.7Q324.92-17.6 324.02-15.38 323.12-13.15 321.44-11.48 319.77-9.8 317.37-8.45 314.97-7.1 311.77-5.85L311.77-5.85Q311.77-5.55 311.74-5.23 311.72-4.9 311.72-4.55L311.72-4.55Q311.72-3.9 311.82-3.2 311.92-2.5 312.17-1.9 312.42-1.3 312.87-0.93 313.32-0.55 314.02-0.55L314.02-0.55Q315.37-0.55 316.67-1.15 317.97-1.75 319.14-2.63 320.32-3.5 321.34-4.53 322.37-5.55 323.17-6.4L323.17-6.4Q323.67-5.95 324.02-5.55L324.02-5.55Q321.77-2.55 319.09-0.58 316.42 1.4 314.02 1.95L314.02 1.95Q310.57 1.55 308.64-0.58 306.72-2.7 306.72-5.7L306.72-5.7Q306.72-7.75 307.29-9.88 307.87-12 308.89-13.98 309.92-15.95 311.29-17.7 312.67-19.45 314.24-20.75 315.82-22.05 317.49-22.8 319.17-23.55 320.82-23.55L320.82-23.55Q323.12-23.25 325.12-20.7ZM321.67-19.05L321.67-19.05Q320.32-18.85 318.87-17.95 317.42-17.05 316.14-15.55 314.87-14.05 313.82-12.05 312.77-10.05 312.17-7.75L312.17-7.75Q316.17-9.75 318.82-12.68 321.47-15.6 321.67-19.05ZM323.42 8.45L323.42 8.45Q323.12 8.2 322.87 7.63 322.62 7.05 322.62 6.55L322.62 6.55Q325.12 4.4 326.19 2.45 327.27 0.5 327.27-1.8L327.27-1.8Q327.27-3.3 327.14-4.38 327.02-5.45 326.67-6.85L326.67-6.85Q327.92-6.75 329.14-6.43 330.37-6.1 331.34-5.63 332.32-5.15 332.97-4.53 333.62-3.9 333.77-3.3L333.77-3.3Q331.42 5 323.42 8.45ZM344.26-19.15L341.41-19.15Q341.16-19.45 340.96-20.43 340.76-21.4 340.76-22.1L340.76-22.1Q342.06-22 343.26-21.93 344.46-21.85 345.46-21.8L345.46-21.8Q346.21-23.3 347.09-24.78 347.96-26.25 348.79-27.48 349.61-28.7 350.34-29.55 351.06-30.4 351.46-30.65L351.46-30.65Q351.96-30.65 352.74-30.48 353.51-30.3 354.31-30.03 355.11-29.75 355.76-29.45 356.41-29.15 356.66-28.85L356.66-28.85Q355.16-26.95 354.09-25.33 353.01-23.7 351.76-21.6L351.76-21.6Q352.76-21.6 353.79-21.65 354.81-21.7 355.86-21.8L355.86-21.8Q356.11-21.55 356.26-21.18 356.41-20.8 356.41-20.4L356.41-20.4Q353.96-19.5 350.46-19.4L350.46-19.4Q349.21-17 348.24-14.63 347.26-12.25 346.59-10.05 345.91-7.85 345.54-5.9 345.16-3.95 345.16-2.4L345.16-2.4Q345.16-0.2 346.81 0.05L346.81 0.05Q348.31-0.15 349.66-0.7 351.01-1.25 352.06-2.1L352.06-2.1Q352.36-1.65 352.41-1.35L352.41-1.35Q352.11-0.9 351.39-0.3 350.66 0.3 349.81 0.88 348.96 1.45 348.16 1.85 347.36 2.25 346.96 2.3L346.96 2.3Q345.71 2.25 344.46 1.75 343.21 1.25 342.19 0.5 341.16-0.25 340.51-1.18 339.86-2.1 339.86-3L339.86-3Q339.86-4.2 340.19-6.03 340.51-7.85 341.11-10 341.71-12.15 342.51-14.5 343.31-16.85 344.26-19.15L344.26-19.15ZM356.01-0.85L356.01-0.85Q356.01-2.6 356.36-4.98 356.71-7.35 357.39-10.05 358.06-12.75 358.99-15.7 359.91-18.65 361.06-21.6L361.06-21.6Q362.06-24.25 363.39-26.95 364.71-29.65 366.26-32.25 367.81-34.85 369.49-37.2 371.16-39.55 372.86-41.5L372.86-41.5Q373.66-41.5 374.59-41.3 375.51-41.1 376.39-40.78 377.26-40.45 377.99-40 378.71-39.55 379.16-39.1L379.16-39.1Q375.41-35.25 372.41-31.33 369.41-27.4 367.66-23.95L367.66-23.95Q366.71-22.05 365.94-20.4 365.16-18.75 364.51-17.13 363.86-15.5 363.34-13.88 362.81-12.25 362.36-10.45L362.36-10.45Q371.96-22.7 376.61-22.7L376.61-22.7Q377.91-22.7 379.41-21.85 380.91-21 382.06-19.55L382.06-19.55Q380.51-17.85 378.86-15.45 377.21-13.05 375.84-10.63 374.46-8.2 373.59-6.13 372.71-4.05 372.71-3.05L372.71-3.05Q372.71-2.55 372.86-2.38 373.01-2.2 373.51-2.2L373.51-2.2Q374.26-2.2 374.71-2.4 375.16-2.6 375.26-2.6L375.26-2.6Q375.51-2.2 375.56-2.05 375.61-1.9 375.61-1.8L375.61-1.8Q375.61-1.6 375.01-1.23 374.41-0.85 373.59-0.48 372.76-0.1 371.96 0.2 371.16 0.5 370.76 0.5L370.76 0.5Q370.26 0.5 369.76 0.23 369.26-0.05 368.89-0.5 368.51-0.95 368.29-1.5 368.06-2.05 368.06-2.65L368.06-2.65Q368.06-3.4 368.49-4.88 368.91-6.35 369.66-8.33 370.41-10.3 371.46-12.65 372.51-15 373.71-17.45L373.71-17.45Q373.71-17.65 373.51-17.65L373.51-17.65Q373.36-17.65 372.74-17.25 372.11-16.85 371.56-16.45L371.56-16.45Q369.76-15.1 367.94-13.13 366.11-11.15 364.39-8.8 362.66-6.45 361.14-3.83 359.61-1.2 358.51 1.45L358.51 1.45Q358.36 1.8 358.06 2.1 357.76 2.4 357.56 2.4L357.56 2.4Q357.41 2.4 357.14 2.05 356.86 1.7 356.64 1.18 356.41 0.65 356.21 0.1 356.01-0.45 356.01-0.85ZM381.96-3.35L381.96-3.35Q381.96-3.8 382.03-4.48 382.11-5.15 382.31-6.28 382.51-7.4 382.83-9 383.16-10.6 383.66-12.85L383.66-12.85Q383.76-13.35 384.11-14.45 384.46-15.55 385.03-16.78 385.61-18 386.43-19.15 387.26-20.3 388.41-20.85L388.41-20.85Q389.26-20.65 390.66-19.83 392.06-19 393.06-17.55L393.06-17.55Q391.91-16.25 391.13-14.95 390.36-13.65 389.73-12.25 389.11-10.85 388.58-9.35 388.06-7.85 387.41-6.2L387.41-6.2Q386.86-4.8 386.41-3.33 385.96-1.85 385.91-0.75L385.91-0.75Q385.91 0.15 385.88 0.53 385.86 0.9 385.61 0.9L385.61 0.9Q385.41 0.9 384.81 0.65 384.21 0.4 383.58-0.13 382.96-0.65 382.46-1.45 381.96-2.25 381.96-3.35ZM391.51-25.05L391.51-25.05Q391.51-25.35 391.66-25.95L391.66-25.95Q391.41-26.2 391.23-26.7 391.06-27.2 391.06-27.6L391.06-27.6Q391.06-28.05 391.18-28.83 391.31-29.6 391.51-30.5 391.71-31.4 392.01-32.38 392.31-33.35 392.61-34.15L392.61-34.15Q393.21-34.15 394.08-33.83 394.96-33.5 395.86-32.98 396.76-32.45 397.51-31.83 398.26-31.2 398.66-30.65L398.66-30.65Q398.11-30.1 397.21-29.13 396.31-28.15 395.46-27.08 394.61-26 393.91-25.05 393.21-24.1 393.01-23.7L393.01-23.7Q392.41-23.8 391.96-24.23 391.51-24.65 391.51-25.05ZM401.81-24.25L401.81-24.25Q403.11-23.85 404.26-22.48 405.41-21.1 405.96-19.45L405.96-19.45Q405.41-18.1 404.26-16.2 403.11-14.3 401.96-12.33 400.81-10.35 399.88-8.58 398.96-6.8 398.81-5.65L398.81-5.65Q399.61-6.5 400.58-7.63 401.56-8.75 402.48-9.88 403.41-11 404.21-11.93 405.01-12.85 405.46-13.3L405.46-13.3Q406.41-14.3 407.71-15.63 409.01-16.95 410.43-18.13 411.86-19.3 413.31-20.13 414.76-20.95 415.96-20.95L415.96-20.95Q417.26-20.95 418.13-20.08 419.01-19.2 419.51-18.25L419.51-18.25Q419.51-18.15 419.13-17.98 418.76-17.8 418.06-17L418.06-17Q417.36-16.1 416.48-14.53 415.61-12.95 414.78-11.13 413.96-9.3 413.41-7.4 412.86-5.5 412.86-3.95L412.86-3.95Q412.86-2.7 413.18-2.35 413.51-2 414.11-2L414.11-2Q414.66-2 415.26-2.25 415.86-2.5 416.21-2.5L416.21-2.5Q416.41-2.4 416.53-2.08 416.66-1.75 416.66-1.5L416.66-1.5Q416.26-1.15 415.71-0.8 415.16-0.45 414.56-0.15 413.96 0.15 413.38 0.35 412.81 0.55 412.36 0.55L412.36 0.55Q410.91 0.55 409.98 0.13 409.06-0.3 408.53-1 408.01-1.7 407.81-2.68 407.61-3.65 407.61-4.75L407.61-4.75Q407.61-5.35 407.71-6.1 407.81-6.85 408.11-7.88 408.41-8.9 408.96-10.33 409.51-11.75 410.36-13.75L410.36-13.75Q410.26-13.75 409.01-13.05 407.76-12.35 406.31-10.9L406.31-10.9Q403.96-8.65 402.08-6.45 400.21-4.25 398.26-1.55L398.26-1.55Q397.16 0 396.33 1.07 395.51 2.15 394.91 2.5L394.91 2.5Q393.86 1.9 393.36 0.83 392.86-0.25 392.61-1.4L392.61-1.4Q392.61-2.35 392.88-3.8 393.16-5.25 393.63-7.03 394.11-8.8 394.81-10.75 395.51-12.7 396.36-14.65L396.36-14.65Q398.26-19.05 399.83-21.55 401.41-24.05 401.81-24.25ZM420.8-4.7L420.8-4.7Q420.8-6.5 421.73-9.7 422.65-12.9 424.15-16.7 425.65-20.5 427.55-24.55 429.45-28.6 431.38-32.1 433.3-35.6 435.08-38.15 436.85-40.7 438.1-41.6L438.1-41.6Q438.8-41.55 439.63-41 440.45-40.45 441.15-39.68 441.85-38.9 442.33-38.05 442.8-37.2 442.8-36.5L442.8-36.5Q440.55-34.7 438.23-31.88 435.9-29.05 433.8-25.68 431.7-22.3 429.93-18.53 428.15-14.75 426.95-11.1L426.95-11.1Q428.55-13.85 430.3-16.1 432.05-18.35 433.8-19.95 435.55-21.55 437.23-22.43 438.9-23.3 440.4-23.35L440.4-23.35Q442.6-21.75 442.6-19.1L442.6-19.1Q442.6-17.5 441.95-15.88 441.3-14.25 440.23-12.88 439.15-11.5 437.78-10.53 436.4-9.55 434.9-9.25L434.9-9.25Q435.4-7.5 436.18-5.7 436.95-3.9 438.03-2.2 439.1-0.5 440.48 0.95 441.85 2.4 443.6 3.4L443.6 3.4Q443.35 3.9 442.85 4.4 442.35 4.9 441.65 5.28 440.95 5.65 440.13 5.88 439.3 6.1 438.5 6.1L438.5 6.1Q437.15 6.1 435.98 4.75 434.8 3.4 433.85 0.85L433.85 0.85Q433.1-1.2 432.4-4.05 431.7-6.9 431.15-10L431.15-10Q431.85-10.45 432.9-11.33 433.95-12.2 435.1-13.35L435.1-13.35Q439.5-17.6 439.5-20.7L439.5-20.7Q439.5-21.1 438.95-21.1L438.95-21.1Q437.95-21.05 436.6-20.15 435.25-19.25 433.73-17.65 432.2-16.05 430.63-13.9 429.05-11.75 427.6-9.25L427.6-9.25Q427-8.25 426.5-6.95 426-5.65 425.63-4.28 425.25-2.9 425.05-1.55 424.85-0.2 424.85 0.95L424.85 0.95Q424.85 1.65 425 2.1L425 2.1Q423.45 1.95 423.1 1.3L423.1 1.3Q422.7 0.7 422.43 0.33 422.15-0.05 421.85-0.3L421.85-0.3Q421.4-0.65 421.1-1.8 420.8-2.95 420.8-4.7ZM486.3-15.9L486.3-15.9Q487.6-15.9 488.35-15 489.1-14.1 489.1-12.5L489.1-12.5Q489.1-12.1 489.05-11.68 489-11.25 488.9-10.95L488.9-10.95Q487.85-11.2 486.6-11.25L486.6-11.25Q486.3-9.05 485-6.63 483.7-4.2 481.85-2.08 480 0.05 477.8 1.65 475.6 3.25 473.45 3.8L473.45 3.8Q466.75 3.65 463.67 0.33 460.6-3 460.6-10.05L460.6-10.05Q460.6-15.2 462.5-20.03 464.4-24.85 467.55-28.6 470.7-32.35 474.77-34.63 478.85-36.9 483.25-36.9L483.25-36.9Q486.7-36.9 488.62-35.45 490.55-34 490.55-31.35L490.55-31.35Q490.55-29.6 489.72-28.1 488.9-26.6 487-24.85L487-24.85Q485.85-25.2 485-26.08 484.15-26.95 483.95-28.1L483.95-28.1Q485.65-29.35 486.35-30.4 487.05-31.45 487.05-32.9L487.05-32.9Q487.05-35.2 484.3-35.2L484.3-35.2Q482.05-35.2 479.47-33.52 476.9-31.85 474.3-28.7L474.3-28.7Q470.6-24.25 468.9-19.53 467.2-14.8 467.2-8.9L467.2-8.9Q467.2-6.7 467.65-4.9 468.1-3.1 468.85-1.75 469.6-0.4 470.62 0.4 471.65 1.2 472.85 1.3L472.85 1.3Q474.45 0.95 476.05-0.33 477.65-1.6 478.97-3.33 480.3-5.05 481.22-7.03 482.15-9 482.35-10.8L482.35-10.8Q480.95-10.5 479.67-10.23 478.4-9.95 477.25-9.95L477.25-9.95Q475.75-9.95 474.62-10.7 473.5-11.45 473.1-12.75L473.1-12.75Q474-13.25 475.72-13.8 477.45-14.35 479.4-14.83 481.35-15.3 483.22-15.6 485.1-15.9 486.3-15.9ZM496.8 1.75L496.8 1.75Q493.95 1.45 492.25-0.75 490.55-2.95 490.55-6.35L490.55-6.35Q490.55-8.35 491.15-10.5 491.75-12.65 492.85-14.68 493.95-16.7 495.45-18.5 496.95-20.3 498.7-21.6L498.7-21.6Q501.45-23.65 503.85-23.65L503.85-23.65Q505.45-22.8 507-20.1L507-20.1Q507.25-20.1 507.45-20.13 507.65-20.15 507.9-20.15L507.9-20.15Q510.55-20.15 510.55-15.45L510.55-15.45Q510.55-12.3 509.52-9.47 508.5-6.65 506.67-4.35 504.85-2.05 502.32-0.48 499.8 1.1 496.8 1.75ZM499.35-14L499.35-14Q498.5-12.85 497.75-11.5 497-10.15 496.45-8.78 495.9-7.4 495.6-6.13 495.3-4.85 495.3-3.85L495.3-3.85Q495.3-2.65 495.7-1.55 496.1-0.45 496.6-0.3L496.6-0.3Q498.85-0.8 500.72-2.18 502.6-3.55 503.97-5.6 505.35-7.65 506.12-10.25 506.9-12.85 506.9-15.8L506.9-15.8Q506.9-17.1 506.75-17.85 506.6-18.6 506.25-19.15L506.25-19.15Q504.05-18.5 502.32-17.05 500.6-15.6 499.35-14ZM530.19-19.9L530.19-19.9Q530.14-18.95 529.87-17.93 529.59-16.9 529.19-16.07 528.79-15.25 528.34-14.7 527.89-14.15 527.49-14.15L527.49-14.15Q526.94-14.2 526.84-14.9L526.84-14.9Q526.84-15.05 526.97-15.38 527.09-15.7 527.24-16.1 527.39-16.5 527.52-16.9 527.64-17.3 527.64-17.6L527.64-17.6Q527.64-18.3 527.32-18.78 526.99-19.25 526.44-19.25L526.44-19.25Q524.44-19.25 523.39-16.75 522.34-14.25 522.34-9.4L522.34-9.4Q522.34-8.9 522.39-8.8L522.39-8.8Q523.44-8.85 524.27-8.88 525.09-8.9 525.89-8.9L525.89-8.9Q525.94-8.8 525.94-8.5L525.94-8.5Q525.94-8.05 525.74-7.85L525.74-7.85Q524.59-7.6 523.92-7.43 523.24-7.25 522.89-7.1 522.54-6.95 522.47-6.78 522.39-6.6 522.39-6.3L522.39-6.3Q522.39-5.9 522.42-5.5 522.44-5.1 522.44-4.5L522.44-4.5Q522.44-0.3 520.17 2.25 517.89 4.8 513.84 5.2L513.84 5.2Q513.14 5.15 512.39 4.8 511.64 4.45 510.97 3.9 510.29 3.35 509.79 2.68 509.29 2 509.09 1.3L509.09 1.3Q509.09-0.6 509.89-2.33 510.69-4.05 512.07-5.38 513.44-6.7 515.32-7.53 517.19-8.35 519.39-8.5L519.39-8.5Q519.39-9.75 519.14-10.95 518.89-12.15 518.62-13.28 518.34-14.4 518.09-15.48 517.84-16.55 517.84-17.6L517.84-17.6Q517.84-18.95 518.39-20.28 518.94-21.6 519.84-22.73 520.74-23.85 521.94-24.65 523.14-25.45 524.44-25.75L524.44-25.75Q524.99-25.6 525.92-24.88 526.84-24.15 527.74-23.25 528.64-22.35 529.34-21.43 530.04-20.5 530.19-19.9ZM513.69 2.9L513.69 2.9Q514.89 2.4 515.97 1.45 517.04 0.5 517.84-0.7 518.64-1.9 519.12-3.25 519.59-4.6 519.59-5.9L519.59-5.9Q518.59-5.75 517.39-4.98 516.19-4.2 515.14-3.13 514.09-2.05 513.39-0.9 512.69 0.25 512.69 1.1L512.69 1.1Q512.69 2.2 513.69 2.9ZM530.19-0.85L530.19-0.85Q530.19-2.6 530.54-4.98 530.89-7.35 531.57-10.05 532.24-12.75 533.17-15.7 534.09-18.65 535.24-21.6L535.24-21.6Q536.24-24.25 537.57-26.95 538.89-29.65 540.44-32.25 541.99-34.85 543.67-37.2 545.34-39.55 547.04-41.5L547.04-41.5Q547.84-41.5 548.77-41.3 549.69-41.1 550.57-40.78 551.44-40.45 552.17-40 552.89-39.55 553.34-39.1L553.34-39.1Q549.59-35.25 546.59-31.33 543.59-27.4 541.84-23.95L541.84-23.95Q540.89-22.05 540.12-20.4 539.34-18.75 538.69-17.13 538.04-15.5 537.52-13.88 536.99-12.25 536.54-10.45L536.54-10.45Q546.14-22.7 550.79-22.7L550.79-22.7Q552.09-22.7 553.59-21.85 555.09-21 556.24-19.55L556.24-19.55Q554.69-17.85 553.04-15.45 551.39-13.05 550.02-10.63 548.64-8.2 547.77-6.13 546.89-4.05 546.89-3.05L546.89-3.05Q546.89-2.55 547.04-2.38 547.19-2.2 547.69-2.2L547.69-2.2Q548.44-2.2 548.89-2.4 549.34-2.6 549.44-2.6L549.44-2.6Q549.69-2.2 549.74-2.05 549.79-1.9 549.79-1.8L549.79-1.8Q549.79-1.6 549.19-1.23 548.59-0.85 547.77-0.48 546.94-0.1 546.14 0.2 545.34 0.5 544.94 0.5L544.94 0.5Q544.44 0.5 543.94 0.23 543.44-0.05 543.07-0.5 542.69-0.95 542.47-1.5 542.24-2.05 542.24-2.65L542.24-2.65Q542.24-3.4 542.67-4.88 543.09-6.35 543.84-8.33 544.59-10.3 545.64-12.65 546.69-15 547.89-17.45L547.89-17.45Q547.89-17.65 547.69-17.65L547.69-17.65Q547.54-17.65 546.92-17.25 546.29-16.85 545.74-16.45L545.74-16.45Q543.94-15.1 542.12-13.13 540.29-11.15 538.57-8.8 536.84-6.45 535.32-3.83 533.79-1.2 532.69 1.45L532.69 1.45Q532.54 1.8 532.24 2.1 531.94 2.4 531.74 2.4L531.74 2.4Q531.59 2.4 531.32 2.05 531.04 1.7 530.82 1.18 530.59 0.65 530.39 0.1 530.19-0.45 530.19-0.85ZM561.99 1.75L561.99 1.75Q559.14 1.45 557.44-0.75 555.74-2.95 555.74-6.35L555.74-6.35Q555.74-8.35 556.34-10.5 556.94-12.65 558.04-14.68 559.14-16.7 560.64-18.5 562.14-20.3 563.89-21.6L563.89-21.6Q566.64-23.65 569.04-23.65L569.04-23.65Q570.64-22.8 572.19-20.1L572.19-20.1Q572.44-20.1 572.64-20.13 572.84-20.15 573.09-20.15L573.09-20.15Q575.74-20.15 575.74-15.45L575.74-15.45Q575.74-12.3 574.71-9.47 573.69-6.65 571.86-4.35 570.04-2.05 567.51-0.48 564.99 1.1 561.99 1.75ZM564.54-14L564.54-14Q563.69-12.85 562.94-11.5 562.19-10.15 561.64-8.78 561.09-7.4 560.79-6.13 560.49-4.85 560.49-3.85L560.49-3.85Q560.49-2.65 560.89-1.55 561.29-0.45 561.79-0.3L561.79-0.3Q564.04-0.8 565.91-2.18 567.79-3.55 569.16-5.6 570.54-7.65 571.31-10.25 572.09-12.85 572.09-15.8L572.09-15.8Q572.09-17.1 571.94-17.85 571.79-18.6 571.44-19.15L571.44-19.15Q569.24-18.5 567.51-17.05 565.79-15.6 564.54-14ZM574.49 16.55L574.49 16.55Q573.78 16.35 573.68 15.05L573.68 15.05Q573.49 14.4 573.41 13.5 573.33 12.6 573.33 11.45L573.33 11.45Q573.33 10.4 573.68 8.58 574.03 6.75 574.66 4.45 575.28 2.15 576.18-0.53 577.08-3.2 578.18-5.95L578.18-5.95Q579.53-9.4 580.53-11.93 581.53-14.45 582.21-16.3 582.88-18.15 583.31-19.35 583.74-20.55 583.99-21.4L583.99-21.4Q584.18-22 584.58-22.85 584.99-23.7 585.51-24.58 586.03-25.45 586.58-26.23 587.13-27 587.58-27.4L587.58-27.4Q589.33-27.15 590.88-26.5 592.43-25.85 592.78-25.25L592.78-25.25Q592.08-24.6 591.18-23.23 590.28-21.85 589.43-20.23 588.58-18.6 587.88-16.9 587.18-15.2 586.83-13.9L586.83-13.9Q587.33-14.75 588.13-15.75 588.93-16.75 590.58-18.5L590.58-18.5Q592.43-20.4 594.06-21.43 595.68-22.45 596.88-22.45L596.88-22.45Q598.78-22.45 600.01-21.4 601.24-20.35 601.24-18.7L601.24-18.7Q601.24-15.1 600.03-11.58 598.83-8.05 596.58-5.2L596.58-5.2Q595.74-4.1 594.58-3.1 593.43-2.1 592.18-1.33 590.93-0.55 589.74-0.1 588.53 0.35 587.58 0.35L587.58 0.35Q586.68 0.35 586.01-0.03 585.33-0.4 585.08-0.95L585.08-0.95Q587.03-2.1 588.88-4.15 590.74-6.2 592.31-8.88 593.88-11.55 595.06-14.65 596.24-17.75 596.83-20.95L596.83-20.95Q594.93-19.95 593.41-18.78 591.88-17.6 590.38-15.7L590.38-15.7Q588.58-13.5 587.53-12.15 586.49-10.8 585.81-9.85 585.13-8.9 584.71-8.08 584.28-7.25 583.78-6.05L583.78-6.05Q583.08-4.45 582.16-1.83 581.24 0.8 580.26 4.05 579.28 7.3 578.31 10.98 577.33 14.65 576.43 18.3L576.43 18.3Q575.88 18.2 575.49 17.5L575.49 17.5Q575.08 17.05 574.91 16.85 574.74 16.65 574.49 16.55Z" opacity="1" transform="matrix(1,0,0,1,0,0)" fill="#ffffff" class="slogan-text-1" data-fill-palette-color="secondary" id="text-1"></path></svg></g></svg></g></svg></g></svg></g><g><svg viewBox="0 0 150.71158119526382 152.4049697480196" height="152.4049697480196" width="150.71158119526382"><g><svg xmlns="http://www.w3.org/2000/svg" xmlns:xlink="http://www.w3.org/1999/xlink" version="1.1" x="0" y="0" viewBox="5.5 5 89 90" enable-background="new 0 0 100 100" xml:space="preserve" height="152.4049697480196" width="150.71158119526382" class="icon-icon-0" data-fill-palette-color="accent" id="icon-0"><path d="M92.46 29.21c1.28-1.74 2.04-3.88 2.04-6.2 0-0.13-0.01-0.27-0.04-0.4l-0.01-0.04-1.99-9.96C92.27 11.67 91.45 11 90.5 11h-80c-0.88 0-1.66 0.58-1.92 1.43l-2.99 9.98-0.01 0.02C5.52 22.62 5.5 22.81 5.5 23c0 2.86 1.15 5.45 3 7.34v57.08c0 1.1 0.9 2 2 2s2-0.9 2-2V32.9c1.09 0.39 2.27 0.6 3.5 0.6 3.5 0 6.6-1.72 8.5-4.35 1.9 2.63 5 4.35 8.5 4.35s6.6-1.72 8.5-4.35c1.9 2.63 5 4.35 8.5 4.35s6.6-1.72 8.5-4.35c1.9 2.63 5 4.35 8.5 4.35s6.6-1.72 8.5-4.35c1.9 2.63 5 4.35 8.5 4.35 1.61 0 3.14-0.36 4.5-1.02v54.94c0 1.1 0.9 2 2 2s2-0.9 2-2v-57.8c0-0.14-0.01-0.27-0.04-0.4C92.46 29.21 92.46 29.21 92.46 29.21zM84 29.5c-3.58 0-6.5-2.92-6.5-6.5 0-1.1-0.9-2-2-2s-2 0.9-2 2c0 3.58-2.92 6.5-6.5 6.5s-6.5-2.92-6.5-6.5c0-1.1-0.9-2-2-2s-2 0.9-2 2c0 3.58-2.92 6.5-6.5 6.5s-6.5-2.92-6.5-6.5c0-1.1-0.9-2-2-2s-2 0.9-2 2c0 3.58-2.92 6.5-6.5 6.5s-6.5-2.92-6.5-6.5c0-1.1-0.9-2-2-2s-2 0.9-2 2c0 3.58-2.92 6.5-6.5 6.5-3.49 0-6.36-2.78-6.49-6.24L11.99 15h76.87l1.63 8.16C90.41 26.67 87.53 29.5 84 29.5zM92.5 25.5M75.5 25.5M92.5 25.5M7.5 25.5M88.5 9h-76c-1.104 0-2-0.896-2-2s0.896-2 2-2h76c1.104 0 2 0.896 2 2S89.604 9 88.5 9zM92.5 95h-85c-1.104 0-2-0.896-2-2s0.896-2 2-2h85c1.104 0 2 0.896 2 2S93.604 95 92.5 95zM38.5 87.208h-20c-1.104 0-2-0.896-2-2v-42c0-1.104 0.896-2 2-2h20c1.104 0 2 0.896 2 2v42C40.5 86.312 39.604 87.208 38.5 87.208zM20.5 83.208h16v-38h-16V83.208zM82.5 87.208h-36c-1.104 0-2-0.896-2-2v-42c0-1.104 0.896-2 2-2h36c1.104 0 2 0.896 2 2v42C84.5 86.312 83.604 87.208 82.5 87.208zM48.5 83.208h32v-38h-32V83.208zM33.75 66.208c0 1.105-0.895 2-2 2-1.105 0-2-0.895-2-2s0.895-2 2-2C32.855 64.208 33.75 65.104 33.75 66.208zM58.539 68.669c-0.512 0-1.023-0.195-1.414-0.586-0.781-0.781-0.781-2.048 0-2.828l4.922-4.921c0.781-0.781 2.047-0.781 2.828 0s0.781 2.048 0 2.828l-4.922 4.921C59.562 68.474 59.051 68.669 58.539 68.669zM65.539 68.669c-0.512 0-1.023-0.195-1.414-0.586-0.781-0.781-0.781-2.048 0-2.828l4.922-4.921c0.781-0.781 2.047-0.781 2.828 0s0.781 2.048 0 2.828l-4.922 4.921C66.562 68.474 66.051 68.669 65.539 68.669z" fill="#50a060" data-fill-palette-color="accent"></path></svg></g></svg></g></svg></g><defs></defs></svg><rect width="395.52" height="107.14331152958634" fill="none" stroke="none" visibility="hidden"></rect></g></svg></g></svg>